<svg width="300" height="300" viewBox="0 0 300 300" xmlns="http://www.w3.org/2000/svg">
  <style>
    path {
      fill: black;
    }
    @media (prefers-color-scheme: dark) {
      path {
        fill: white;
      }
    }
  </style>
  <path d="m242.253 221.663-.021-18.741 18.762 18.704z" />
  <path d="M242.697 221.665h-78v-19h68c5.522 0 10 4.477 10 10z" />
  <path d="m165.164 221.666-21.026.001 20.948-21.027zm70.29-.48-60.693-60.693L187.253 148l60.693 60.694z" />
  <path d="m176.197 189.665 15.155 15h-30.311zM57.444 78.001l.02 18.74-18.761-18.703z" />
  <path d="M57 78h78v19H67c-5.523 0-10-4.477-10-10z" />
  <path d="M134.532 77.998h21.027L134.61 99.024zm-70.289.48 60.693 60.693-12.492 12.493L51.75 90.97z" />
  <path d="m123.5 110-15.155-15h30.31zm104.889 149.095-.022-18.02 18.042 17.986z" />
  <path d="M230.396 259.096h-158v-18h154.5a3.5 3.5 0 0 1 3.5 3.5z" />
  <path d="m73.754 259.115-19.117.01 19.055-19.127z" />
  <path d="m84.34 229.346 12.914 12.884-25.631-.118z" />
  <path  d="m79.99 233.853 155.33-155.33 12.806 12.806-155.33 155.33z"/>
  <path d="M247.891 91.57 235.23 78.564l25.164.154zM71.564 41.527l.021 18.02L53.544 41.56z" />
  <path d="M69.556 41.526h158v18h-154.5a3.5 3.5 0 0 1-3.5-3.5z" />
  <path d="m226.199 41.506 19.117-.01-19.056 19.127z" />
  <path d="m215.612 71.276-12.914-12.884 25.632.117z" />
  <path  d="m219.962 66.769-155.33 155.33-12.806-12.806 155.33-155.33z"/>
  <path d="m52.061 209.051 12.661 13.007-25.163-.154z" />
</svg>
